<svg width="268" height="268" viewBox="0 0 268 268" fill="none" xmlns="http://www.w3.org/2000/svg">
<g filter="url(#filter0_d_847_15660)">
<rect x="4" width="260" height="260" rx="61.39" fill="#28D1B4"/>
</g>
<path d="M187.996 126.521H168.534V48.4462H220.411V66.6272H187.996V80.5591H218.548V98.2877H187.996V126.521Z" fill="white"/>
<path d="M163.4 93.755H182.689C179.835 113.627 163.078 126.769 142.775 126.769C120.543 126.769 102.442 110.155 102.442 87.7826C102.395 82.58 103.407 77.4218 105.415 72.622C107.424 67.8222 110.387 63.4808 114.125 59.8615C121.797 52.4314 132.096 48.336 142.775 48.4681C162.89 48.4681 180.115 61.712 182.565 81.266H163.295C157.5 59.1162 121.397 61.2821 121.397 87.7826C121.397 114.286 157.953 116.239 163.4 93.7612V93.755Z" fill="#303030" fill-opacity="0.05"/>
<path d="M159.453 93.755C156.143 104.935 144.365 111.583 132.771 108.799C121.17 106.005 113.902 94.7935 116.31 83.3968C118.714 71.9971 129.933 64.4865 141.718 66.3881C146.546 67.042 150.998 69.3495 154.315 72.9177C156.608 75.278 158.328 78.133 159.345 81.2627H178.051C175.602 61.6645 158.328 48.4683 138.262 48.4683C127.581 48.3324 117.28 52.4257 109.605 59.8553C105.864 63.4755 102.899 67.8188 100.89 72.621C98.8813 77.4232 97.8701 82.5839 97.9185 87.7892C97.9185 110.162 115.915 126.769 138.268 126.769C158.555 126.769 175.264 113.627 178.169 93.755H159.453Z" fill="white"/>
<path d="M101.321 115.163H74.237L69.8097 126.508H49.0837L80.8018 48.3633H94.6255L127.605 126.534H105.723L101.314 115.163H101.321ZM81.9355 95.8191L81.257 97.5838H94.4056L93.95 96.2586L87.828 79.5015L81.9355 95.8191Z" fill="#303030" fill-opacity="0.05"/>
<path d="M96.1921 115.163H69.1533L64.7291 126.508H44L75.7211 48.3634H89.5449L122.524 126.534H100.652L96.1921 115.163ZM76.852 95.8192L76.1766 97.5839H89.325L88.8665 96.2588L82.7478 79.5016L76.852 95.8192Z" fill="white"/>
<g opacity="0.05">
<path d="M174.5 147.5C172.5 145.5 169 145.5 166.5 147.5L154.5 159.5C149.219 157.539 143.633 156.524 138 156.5C119 157 102 167 93 183.5C94 185.5 95.5 187.5 97 189.5C101 195 106 199.5 111.5 203L103 211.5C101 213.5 100.5 217 103 219.5C105 221.5 108.5 222 111 219.5L174.5 155.5C176.5 153 176.5 149.5 174.5 147.5V147.5ZM121.5 192.5L115 199C109 195.5 103.5 190.5 99.5 184.5C105.5 176 113.5 170 123 167C116.5 174 116 185 121.5 192.5V192.5ZM138.5 176C136 173.5 136.5 169.5 139 167C141.5 165 145 165 147.5 167L138.5 176ZM179.5 178.5C177 175 174 171.5 170.5 169L165.5 174C169.5 177 173 180.5 176 185C167.5 198 153 206 137.5 206H133.5L128.5 211C132 210.5 135 211 138 211C154.5 211 170 203 179.5 189.5C181 187.5 182 185.5 183.5 183.5C182 182 181 180 179.5 178.5V178.5ZM158 181L138 201C149 201 158 192 158 181Z" fill="#303030"/>
</g>
<path d="M170.5 147.5C168.5 145.5 165 145.5 162.5 147.5L150.5 159.5C145.219 157.539 139.633 156.524 134 156.5C115 157 98 167 89 183.5C90 185.5 91.5 187.5 93 189.5C97 195 102 199.5 107.5 203L99 211.5C97 213.5 96.5 217 99 219.5C101 221.5 104.5 222 107 219.5L170.5 155.5C172.5 153 172.5 149.5 170.5 147.5ZM117.5 192.5L111 199C105 195.5 99.5 190.5 95.5 184.5C101.5 176 109.5 170 119 167C112.5 174 112 185 117.5 192.5ZM134.5 176C132 173.5 132.5 169.5 135 167C137.5 165 141 165 143.5 167L134.5 176ZM175.5 178.5C173 175 170 171.5 166.5 169L161.5 174C165.5 177 169 180.5 172 185C163.5 198 149 206 133.5 206H129.5L124.5 211C128 210.5 131 211 134 211C150.5 211 166 203 175.5 189.5C177 187.5 178 185.5 179.5 183.5C178 182 177 180 175.5 178.5ZM154 181L134 201C145 201 154 192 154 181Z" fill="white"/>
<defs>
<filter id="filter0_d_847_15660" x="0" y="0" width="268" height="268" filterUnits="userSpaceOnUse" color-interpolation-filters="sRGB">
<feFlood flood-opacity="0" result="BackgroundImageFix"/>
<feColorMatrix in="SourceAlpha" type="matrix" values="0 0 0 0 0 0 0 0 0 0 0 0 0 0 0 0 0 0 127 0" result="hardAlpha"/>
<feOffset dy="4"/>
<feGaussianBlur stdDeviation="2"/>
<feComposite in2="hardAlpha" operator="out"/>
<feColorMatrix type="matrix" values="0 0 0 0 0.188235 0 0 0 0 0.188235 0 0 0 0 0.188235 0 0 0 0.12 0"/>
<feBlend mode="normal" in2="BackgroundImageFix" result="effect1_dropShadow_847_15660"/>
<feBlend mode="normal" in="SourceGraphic" in2="effect1_dropShadow_847_15660" result="shape"/>
</filter>
</defs>
</svg>
